<svg xmlns="http://www.w3.org/2000/svg" viewBox="40 94.951 220 110.097" width="220" height="110.097">
    <path d="M123.175 155.51l12.67-42.21h12.37 0q.225 1.05 11.996 40.11h0 2.249v24.141h-5.098v1.874h5.098v5.173h-13.645v-14.845h-16.719v6.298h-6.748v10.646h-12.445v-.75h.975v-9.896h5.098V155.51h4.198zm18.743-21.517h-.3v.15h0q-1.574 8.697-6.148 27.515h0 11.471v-8.247h-.975 0q-4.049-17.843-4.049-19.418h0zm-22.192 17.843h0 1.125 0q0 .45.525.75h0 0q0-.45.45-.75h0 .9v.075h0q-.9 1.2-.9 1.35h0 0q.225.45.975 1.499h0v.3h-.45 0q-.675 0-.975-1.05h0 0q-.825 1.05-.9 1.05h0-.6 0q-.3 0-.3-.3h0 0q.15 0 1.05-1.35h0v-.225h0q-.9-1.275-.9-1.35zm-10.346 3.674v-2.249h9.596v2.249h-9.596zm53.455.15v-.75h2.549v.6l-1.574 1.949h1.499 0q.225.075.225.3h0v.225h0q0 .3-.225.3h0-2.624v-.675l1.574-1.949h-1.424zm-18.968 5.773v-3.299h.75v1.2l1.35-1.2h.75v.15l-1.05 1.2h0q1.2 1.724 1.2 1.949h0-.75 0q-.15 0-1.125-1.35h0 0q-.15 0-.375.375h0v.975h-.75zm19.193-2.174h0 1.499 0q1.125.15 1.125 1.125h0l-.375.6h0q.375.375.375 1.499h0v.075h-.75 0q-.15-1.2-.375-1.2h0-.9v1.2h-.6 0q-.225 0-.225-.225h0v-2.849h0q0-.225.225-.225zm1.724.675h-1.125v.75h.9 0q.225 0 .225-.225h0v-.525zm-1.949 3.599h0 2.324 0q.225.075.225.225h0v.3h0q0 .225-.225.225h0-.75v2.624h-.825v-2.624h-.75 0q-.3 0-.3-.225h0v-.3h0q.075-.225.3-.225zm.75 7.722l-1.05-3.374h.6 0q.375 0 .825 2.099h0 .075 0q.6-1.799.6-2.099h0 .9 0q-.975 3.374-1.275 3.374h0-.675zm-30.889.6l3.149-1.125v.675h0q0 .15-2.024.825h0v.15l2.024.675v.75l-3.149-1.125v-.825zm-16.044.375h0 .375 0q.45 0 1.35 3.374h0-.75 0q0-.15-.225-.825h0-1.125 0q-.15.825-.375.825h0-.6 0q1.05-3.374 1.35-3.374zm47.533 0h0 .375 0q1.2 0 1.499 1.724h0 0q-.375 1.724-1.649 1.724h0 0q-1.724-.3-1.724-1.724h0 0q.3-1.724 1.499-1.724zm-.6 1.574h0v.15h0q0 .675.6 1.05h0 .375 0q.6-.375.6-1.05h0v-.15h0q-.075-.975-.9-.975h0 0q-.675.3-.675.975zm-46.708-.45h-.075 0q-.3.825-.3.825h0 .6l-.225-.825zm31.938 13.345v-1.2h16.494v1.2h-16.494zm17.094-61.028v-12.221h38.536v9.222h0q0 .3-5.848 12.82h0 13.045v3.224h-14.47 0q-.15 0-3.899 7.872h0 0q-.15.6-3.824 8.322h0 2.099 0q-3.974 8.622-4.423 9.222h0-6.373v2.849h5.098l-3.449 7.347h13.42v3.899h12.146v8.247h0q0 .225-.3.225h0-20.318v-1.2h-21.442v-7.047h3.074v-7.872h0q.825-2.249 7.422-15.669h0-2.099v-.15l13.945-29.089h-22.342zm32.538 9.821h-6.823v3.224h5.173 0q.3 0 1.649-3.224h0zm15.219-22.042h0 14.395 0q0 10.571 3.749 17.918h0 0q3.899 9.671 5.398 15.294h0v.15h.15 0q1.799-6.823 7.572-20.917h0 0q1.499-6.748 1.499-12.445h0H260h0q-1.275 11.021-3.074 16.269h0l-8.172 18.443h-4.948v12.67h-7.422v2.474h7.422v23.391h-14.02 0q-.225 0-.225-.225h0v-11.471h-2.249v-20.318h4.198v-1.874h-4.573 0q-.525-.675-8.472-19.043h0 0q-3.299-7.422-3.299-8.847h0 5.998v-2.624h-6.523 0q-.975-8.097-.975-8.847zm-8.772 11.471v-2.624h9.746l.375 2.624h-10.121zm38.911 38.386v-2.474h6.073v2.474h-6.073z"
          fill="#002c73"/>
    <g fill="#ffd009">
        <path d="M76.432 186.108L40 149.673l36.556-36.556 2.432 2.432-34.123 34.123 33.999 34.003z"/>
        <path d="M92.94 98.392v14.43H78.51v-14.43h14.43m3.441-3.441H75.069v21.311H96.38V94.951zm-3.441 92.227v14.43H78.51v-14.43h14.43m3.441-3.441H75.069v21.311H96.38v-21.311z"/>
    </g>
</svg>