<svg viewBox="40 94.951 220 110.097" width="220" height="110.097" xmlns="http://www.w3.org/2000/svg">
  <defs></defs>
  <g data-v-fde0c5aa="" id="6f967e77-7ec0-49ac-b3fd-d92cc7ff90aa" fill="#002C73" transform="matrix(7.497257, 0, 0, 7.497257, 112.678894, 98.756248)">
    <path d="M1.40 7.57L3.09 1.94L4.74 1.94L4.74 1.94Q4.77 2.08 6.34 7.29L6.34 7.29L6.64 7.29L6.64 10.51L5.96 10.51L5.96 10.76L6.64 10.76L6.64 11.45L4.82 11.45L4.82 9.47L2.59 9.47L2.59 10.31L1.69 10.31L1.69 11.73L0.03 11.73L0.03 11.63L0.16 11.63L0.16 10.31L0.84 10.31L0.84 7.57L1.40 7.57ZM3.90 4.70L3.86 4.70L3.86 4.72L3.86 4.72Q3.65 5.88 3.04 8.39L3.04 8.39L4.57 8.39L4.57 7.29L4.44 7.29L4.44 7.29Q3.90 4.91 3.90 4.70L3.90 4.70ZM0.94 7.08L0.94 7.08L1.09 7.08L1.09 7.08Q1.09 7.14 1.16 7.18L1.16 7.18L1.16 7.18Q1.16 7.12 1.22 7.08L1.22 7.08L1.34 7.08L1.34 7.09L1.34 7.09Q1.22 7.25 1.22 7.27L1.22 7.27L1.22 7.27Q1.25 7.33 1.35 7.47L1.35 7.47L1.35 7.51L1.29 7.51L1.29 7.51Q1.20 7.51 1.16 7.37L1.16 7.37L1.16 7.37Q1.05 7.51 1.04 7.51L1.04 7.51L0.96 7.51L0.96 7.51Q0.92 7.51 0.92 7.47L0.92 7.47L0.92 7.47Q0.94 7.47 1.06 7.29L1.06 7.29L1.06 7.26L1.06 7.26Q0.94 7.09 0.94 7.08ZM-0.44 7.57L-0.44 7.27L0.84 7.27L0.84 7.57L-0.44 7.57ZM6.69 7.59L6.69 7.49L7.03 7.49L7.03 7.57L6.82 7.83L7.02 7.83L7.02 7.83Q7.05 7.84 7.05 7.87L7.05 7.87L7.05 7.90L7.05 7.90Q7.05 7.94 7.02 7.94L7.02 7.94L6.67 7.94L6.67 7.85L6.88 7.59L6.69 7.59ZM4.16 8.36L4.16 7.92L4.26 7.92L4.26 8.08L4.44 7.92L4.54 7.92L4.54 7.94L4.40 8.10L4.40 8.10Q4.56 8.33 4.56 8.36L4.56 8.36L4.46 8.36L4.46 8.36Q4.44 8.36 4.31 8.18L4.31 8.18L4.31 8.18Q4.29 8.18 4.26 8.23L4.26 8.23L4.26 8.36L4.16 8.36ZM6.72 8.07L6.72 8.07L6.92 8.07L6.92 8.07Q7.07 8.09 7.07 8.22L7.07 8.22L7.02 8.30L7.02 8.30Q7.07 8.35 7.07 8.50L7.07 8.50L7.07 8.51L6.97 8.51L6.97 8.51Q6.95 8.35 6.92 8.35L6.92 8.35L6.80 8.35L6.80 8.51L6.72 8.51L6.72 8.51Q6.69 8.51 6.69 8.48L6.69 8.48L6.69 8.10L6.69 8.10Q6.69 8.07 6.72 8.07ZM6.95 8.16L6.80 8.16L6.80 8.26L6.92 8.26L6.92 8.26Q6.95 8.26 6.95 8.23L6.95 8.23L6.95 8.16ZM6.69 8.64L6.69 8.64L7 8.64L7 8.64Q7.03 8.65 7.03 8.67L7.03 8.67L7.03 8.71L7.03 8.71Q7.03 8.74 7 8.74L7 8.74L6.90 8.74L6.90 9.09L6.79 9.09L6.79 8.74L6.69 8.74L6.69 8.74Q6.65 8.74 6.65 8.71L6.65 8.71L6.65 8.67L6.65 8.67Q6.66 8.64 6.69 8.64ZM6.79 9.67L6.65 9.22L6.73 9.22L6.73 9.22Q6.78 9.22 6.84 9.50L6.84 9.50L6.85 9.50L6.85 9.50Q6.93 9.26 6.93 9.22L6.93 9.22L7.05 9.22L7.05 9.22Q6.92 9.67 6.88 9.67L6.88 9.67L6.79 9.67ZM2.67 9.75L3.09 9.60L3.09 9.69L3.09 9.69Q3.09 9.71 2.82 9.80L2.82 9.80L2.82 9.82L3.09 9.91L3.09 10.01L2.67 9.86L2.67 9.75ZM0.53 9.80L0.53 9.80L0.58 9.80L0.58 9.80Q0.64 9.80 0.76 10.25L0.76 10.25L0.66 10.25L0.66 10.25Q0.66 10.23 0.63 10.14L0.63 10.14L0.48 10.14L0.48 10.14Q0.46 10.25 0.43 10.25L0.43 10.25L0.35 10.25L0.35 10.25Q0.49 9.80 0.53 9.80ZM6.87 9.80L6.87 9.80L6.92 9.80L6.92 9.80Q7.08 9.80 7.12 10.03L7.12 10.03L7.12 10.03Q7.07 10.26 6.90 10.26L6.90 10.26L6.90 10.26Q6.67 10.22 6.67 10.03L6.67 10.03L6.67 10.03Q6.71 9.80 6.87 9.80ZM6.79 10.01L6.79 10.01L6.79 10.03L6.79 10.03Q6.79 10.12 6.87 10.17L6.87 10.17L6.92 10.17L6.92 10.17Q7 10.12 7 10.03L7 10.03L7 10.01L7 10.01Q6.99 9.88 6.88 9.88L6.88 9.88L6.88 9.88Q6.79 9.92 6.79 10.01ZM0.56 9.95L0.55 9.95L0.55 9.95Q0.51 10.06 0.51 10.06L0.51 10.06L0.59 10.06L0.56 9.95ZM4.82 11.73L4.82 11.57L7.02 11.57L7.02 11.73L4.82 11.73ZM7.10 3.59L7.10 1.96L12.24 1.96L12.24 3.19L12.24 3.19Q12.24 3.23 11.46 4.90L11.46 4.90L13.20 4.90L13.20 5.33L11.27 5.33L11.27 5.33Q11.25 5.33 10.75 6.38L10.75 6.38L10.75 6.38Q10.73 6.46 10.24 7.49L10.24 7.49L10.52 7.49L10.52 7.49Q9.99 8.64 9.93 8.72L9.93 8.72L9.08 8.72L9.08 9.10L9.76 9.10L9.30 10.08L11.09 10.08L11.09 10.60L12.71 10.60L12.71 11.70L12.71 11.70Q12.71 11.73 12.67 11.73L12.67 11.73L9.96 11.73L9.96 11.57L7.10 11.57L7.10 10.63L7.51 10.63L7.51 9.58L7.51 9.58Q7.62 9.28 8.50 7.49L8.50 7.49L8.22 7.49L8.22 7.47L10.08 3.59L7.10 3.59ZM11.44 4.90L10.53 4.90L10.53 5.33L11.22 5.33L11.22 5.33Q11.26 5.33 11.44 4.90L11.44 4.90ZM13.47 1.96L13.47 1.96L15.39 1.96L15.39 1.96Q15.39 3.37 15.89 4.35L15.89 4.35L15.89 4.35Q16.41 5.64 16.61 6.39L16.61 6.39L16.61 6.41L16.63 6.41L16.63 6.41Q16.87 5.50 17.64 3.62L17.64 3.62L17.64 3.62Q17.84 2.72 17.84 1.96L17.84 1.96L19.65 1.96L19.65 1.96Q19.48 3.43 19.24 4.13L19.24 4.13L18.15 6.59L17.49 6.59L17.49 8.28L16.50 8.28L16.50 8.61L17.49 8.61L17.49 11.73L15.62 11.73L15.62 11.73Q15.59 11.73 15.59 11.70L15.59 11.70L15.59 10.17L15.29 10.17L15.29 7.46L15.85 7.46L15.85 7.21L15.24 7.21L15.24 7.21Q15.17 7.12 14.11 4.67L14.11 4.67L14.11 4.67Q13.67 3.68 13.67 3.49L13.67 3.49L14.47 3.49L14.47 3.14L13.60 3.14L13.60 3.14Q13.47 2.06 13.47 1.96ZM12.30 3.49L12.30 3.14L13.60 3.14L13.65 3.49L12.30 3.49ZM17.49 8.61L17.49 8.28L18.30 8.28L18.30 8.61L17.49 8.61Z"></path>
  </g>
  <g data-v-fde0c5aa="" id="f1daa148-d216-4634-9fb4-7bdfc65b03db" stroke="none" fill="#FFD009" transform="matrix(3.440538, 0, 0, 3.440538, 13.13972, 94.951393)">
    <path d="M18.396 26.495L7.807 15.905 18.432 5.28l.707.707-9.918 9.918 9.882 9.883z"></path>
    <path d="M23.194 1v4.194H19V1h4.194m1-1H18v6.194h6.194V0zM23.194 26.806V31H19v-4.194h4.194m1-1H18V32h6.194v-6.194z"></path>
  </g>
</svg>